<?xml version="1.0" standalone="no"?>
<!DOCTYPE svg PUBLIC "-//W3C//DTD SVG 20010904//EN"
 "http://www.w3.org/TR/2001/REC-SVG-20010904/DTD/svg10.dtd">
<svg version="1.0" xmlns="http://www.w3.org/2000/svg"
 width="1080.000000pt" height="300.000000pt" viewBox="0 0 1080.000000 300.000000"
 preserveAspectRatio="xMidYMid meet">

<g transform="translate(0.000000,300.000000) scale(0.100000,-0.100000)"
fill="#000000" stroke="none">
<path d="M95 2986 c-41 -18 -83 -69 -90 -109 -3 -18 -4 -649 -3 -1404 3 -1367
3 -1372 24 -1399 11 -15 33 -37 48 -48 l27 -21 5287 -3 5286 -2 42 21 c31 15
48 32 64 63 20 43 20 45 18 1429 -3 1382 -3 1386 -24 1413 -11 15 -33 37 -48
48 l-27 21 -5287 2 c-4380 2 -5292 0 -5317 -11z m2105 -547 l156 -21 214 -172
213 -171 94 -250 94 -249 -12 -206 -13 -205 -149 -198 c-83 -108 -152 -195
-155 -193 -2 3 60 89 137 191 156 205 153 195 38 161 -39 -11 -40 -13 -113
-179 -40 -92 -71 -173 -69 -179 2 -7 -6 -25 -18 -41 -20 -24 -60 -38 -297
-108 -181 -53 -290 -81 -320 -80 -25 1 -109 11 -186 24 -139 23 -143 24 -223
76 -45 30 -79 56 -77 58 2 3 38 -18 80 -46 71 -48 81 -52 197 -71 68 -11 124
-18 126 -16 6 6 -399 146 -408 140 -12 -7 -62 29 -166 121 -88 78 -93 84 -175
240 -80 152 -86 166 -101 266 -14 91 -15 132 -6 305 l12 199 39 52 c21 29 42
52 46 50 5 -1 57 44 116 100 90 85 110 109 122 149 8 27 13 52 12 56 -2 4 -56
-62 -122 -148 -65 -85 -121 -153 -123 -150 -3 2 55 83 129 179 l133 175 275
80 c151 44 291 80 310 81 19 1 105 -8 190 -20z m2012 -689 c21 -6 52 -23 69
-37 32 -27 72 -100 63 -115 -3 -4 -25 -8 -49 -8 -39 0 -46 3 -60 30 -38 73
-171 66 -211 -11 -41 -80 -23 -207 36 -249 42 -30 123 -28 155 5 14 13 25 31
25 40 0 12 12 15 56 15 53 0 55 -1 48 -22 -39 -130 -179 -185 -310 -124 -111
52 -161 190 -117 325 39 122 165 187 295 151z m3885 -2 c63 -15 137 -87 153
-147 18 -67 14 -164 -8 -214 -78 -176 -334 -183 -425 -14 -18 35 -22 58 -22
133 0 83 2 94 30 139 61 98 154 133 272 103z m511 -17 c39 -20 72 -62 87 -108
6 -22 4 -23 -43 -23 -43 0 -50 3 -60 26 -24 50 -111 66 -154 27 -46 -41 -12
-73 117 -107 107 -29 145 -60 152 -128 11 -93 -49 -156 -156 -165 -80 -8 -149
16 -195 68 -20 21 -36 45 -36 53 0 8 -3 21 -6 30 -5 13 2 16 42 16 44 -1 51
-4 69 -33 27 -43 61 -59 114 -54 50 5 74 25 74 61 0 41 -17 52 -121 81 -103
28 -118 36 -145 75 -31 45 -17 133 27 169 53 44 161 49 234 12z m-3748 -60 l0
-79 38 20 c89 46 198 -20 216 -131 24 -153 -99 -274 -216 -213 -30 16 -38 17
-38 6 0 -10 -13 -14 -45 -14 l-45 0 0 245 0 245 45 0 45 0 0 -79z m590 -75
c41 -27 64 -69 75 -133 l7 -43 -136 0 c-152 0 -162 -6 -107 -61 37 -37 79 -38
119 -4 21 18 42 25 71 25 23 0 41 -3 41 -8 0 -4 -11 -24 -25 -45 -35 -51 -77
-71 -151 -72 -73 0 -120 27 -156 90 -55 98 -4 243 97 275 47 15 124 4 165 -24z
m340 -11 c0 -43 -1 -45 -30 -45 -19 0 -40 -9 -55 -25 -24 -23 -25 -30 -25
-140 l0 -115 -45 0 -45 0 0 180 0 180 45 0 c32 0 45 -4 45 -14 0 -11 8 -10 37
5 60 31 73 26 73 -26z m242 35 c41 -12 98 -70 98 -100 0 -33 -62 -27 -98 10
-33 33 -67 38 -98 16 -33 -25 -6 -49 80 -71 94 -24 126 -49 126 -99 0 -70 -37
-109 -116 -122 -78 -12 -157 25 -190 88 -19 38 -19 38 28 38 33 0 47 -5 63
-25 28 -36 86 -44 114 -16 38 38 23 49 -108 82 -60 14 -91 48 -91 97 0 85 86
131 192 102z m448 -19 c131 -95 86 -327 -68 -348 -31 -4 -50 0 -77 15 l-35 21
0 -79 0 -80 -45 0 -45 0 0 245 0 245 45 0 c33 0 45 -4 45 -15 0 -12 7 -11 38
6 43 23 102 20 142 -10z m367 10 c64 -30 73 -56 73 -216 l0 -135 -40 0 c-34 0
-40 3 -40 20 0 21 0 21 -28 0 -66 -49 -170 -31 -198 35 -37 89 20 143 179 170
44 7 51 36 13 60 -30 20 -72 11 -93 -21 -12 -19 -24 -24 -55 -24 -39 0 -40 1
-33 28 20 84 130 124 222 83z m378 8 c44 -13 105 -70 105 -100 0 -16 -7 -19
-44 -19 -36 0 -47 5 -60 25 -13 19 -25 25 -54 25 -21 0 -47 -7 -59 -15 -48
-33 -49 -150 -2 -187 12 -10 38 -18 60 -18 30 0 42 5 55 25 14 21 24 25 64 25
44 0 48 -2 43 -21 -10 -37 -66 -86 -113 -99 -125 -34 -233 49 -233 179 0 136
106 216 238 180z m431 -16 c46 -24 84 -89 84 -144 l0 -38 -135 -3 -134 -3 15
-31 c27 -57 98 -71 140 -29 19 19 35 25 70 25 l45 0 -21 -38 c-34 -60 -82 -87
-154 -87 -75 1 -117 22 -152 75 -66 100 -25 247 81 286 49 18 112 13 161 -13z
m-3150 -100 c20 -65 39 -121 43 -125 4 -4 22 49 41 117 l35 125 47 0 c27 0 48
-2 48 -4 0 -5 -114 -331 -140 -399 -25 -67 -54 -87 -125 -87 l-46 0 3 38 c3
33 6 37 33 40 38 5 55 19 55 45 0 11 -27 94 -60 184 -33 90 -60 168 -60 173 0
6 20 10 45 10 l44 0 37 -117z"/>
<path d="M1955 2435 c-37 -12 -28 -13 110 -13 l150 0 -85 13 c-107 17 -126 17
-175 0z"/>
<path d="M2080 2300 c118 -60 220 -109 226 -109 6 -1 16 38 22 88 20 148 49
131 -225 130 l-238 0 215 -109z"/>
<path d="M1807 2218 c-20 -99 -35 -183 -32 -186 2 -3 122 28 265 69 l260 74
-223 112 c-122 62 -224 112 -227 112 -3 1 -22 -81 -43 -181z"/>
<path d="M1613 2267 c-111 -67 -199 -125 -195 -128 8 -8 313 -109 327 -109 6
0 25 73 43 163 19 89 36 170 38 180 3 9 2 17 -3 17 -4 -1 -99 -56 -210 -123z"/>
<path d="M2356 2378 c-9 -28 -28 -189 -23 -195 7 -6 400 -93 404 -89 3 3 -356
289 -369 294 -4 2 -10 -2 -12 -10z"/>
<path d="M1596 2334 c-82 -24 -153 -47 -156 -51 -10 -11 -40 -123 -33 -123 5
0 236 137 322 192 58 36 46 35 -133 -18z"/>
<path d="M2035 2088 c-132 -38 -246 -75 -253 -82 -9 -9 -12 -76 -10 -289 l3
-277 195 140 c107 78 196 145 198 149 2 5 -85 66 -193 136 -108 70 -193 130
-191 133 3 2 58 -31 123 -73 65 -43 154 -102 199 -131 l81 -52 47 161 c25 89
53 183 61 210 13 43 13 47 -3 46 -9 0 -125 -32 -257 -71z"/>
<path d="M2311 2123 c-6 -21 -33 -114 -60 -208 -28 -93 -48 -171 -45 -174 5
-6 437 -50 442 -46 2 1 -71 107 -162 235 l-165 232 -10 -39z"/>
<path d="M2347 2148 c6 -7 76 -107 158 -223 81 -115 151 -214 155 -218 4 -4
28 74 55 173 28 104 44 184 39 189 -8 7 -386 92 -408 91 -5 0 -4 -6 1 -12z"/>
<path d="M1371 2038 c-12 -51 -37 -153 -55 -225 -19 -75 -29 -130 -22 -126 6
4 107 76 224 161 117 85 215 152 218 150 2 -3 -97 -78 -221 -168 -124 -89
-225 -164 -225 -166 0 -2 104 -56 230 -119 l230 -115 0 282 c0 156 -4 288 -8
294 -4 6 -79 35 -167 64 -88 29 -165 55 -172 57 -7 3 -19 -30 -32 -89z"/>
<path d="M1227 1972 l-138 -138 86 -78 c47 -43 83 -81 80 -84 -3 -3 -31 19
-63 49 -31 30 -67 63 -79 73 l-23 19 0 -273 c0 -152 4 -270 9 -265 4 6 43 93
85 195 61 148 88 229 132 404 30 120 53 223 52 227 -2 5 -65 -53 -141 -129z"/>
<path d="M2725 1870 c-26 -99 -46 -182 -44 -184 9 -7 262 -97 265 -93 3 3
-162 447 -170 454 -1 2 -24 -78 -51 -177z"/>
<path d="M1986 1577 c-109 -79 -197 -148 -196 -153 2 -8 522 -195 527 -190 2
2 -116 439 -128 474 -3 8 -79 -42 -203 -131z"/>
<path d="M2205 1699 c4 -12 34 -119 66 -237 32 -118 60 -216 62 -219 3 -2 75
93 162 212 86 119 155 218 153 220 -4 4 -389 45 -426 45 -19 0 -22 -4 -17 -21z"/>
<path d="M2681 1658 c0 -7 22 -125 48 -262 l47 -249 89 206 c53 124 85 211 79
216 -8 7 -249 101 -260 101 -2 0 -4 -6 -3 -12z"/>
<path d="M2649 1644 c-9 -11 -72 -95 -139 -189 -68 -93 -134 -184 -147 -201
l-23 -30 198 -43 c108 -23 204 -44 213 -47 15 -4 -9 144 -83 515 -2 10 -7 8
-19 -5z"/>
<path d="M1283 1633 c3 -10 29 -119 58 -243 28 -124 54 -231 58 -237 5 -9 57
28 161 113 85 69 161 132 169 139 12 11 -23 32 -218 130 -169 84 -231 111
-228 98z"/>
<path d="M1186 1442 c-43 -103 -80 -192 -83 -198 -5 -12 263 -111 274 -101 6
6 -93 451 -106 474 -4 7 -42 -72 -85 -175z"/>
<path d="M1068 1514 c-2 -47 -1 -102 3 -123 4 -23 7 7 8 87 0 67 -1 122 -3
122 -2 0 -6 -39 -8 -86z"/>
<path d="M2872 1336 c-45 -106 -82 -196 -82 -199 0 -6 129 29 138 38 4 4 31
346 27 352 0 1 -38 -85 -83 -191z"/>
<path d="M1770 1403 c0 -24 94 -510 100 -516 4 -4 105 67 225 159 165 127 214
169 202 175 -13 8 -175 65 -459 164 -38 13 -68 21 -68 18z"/>
<path d="M1584 1269 c-87 -72 -163 -134 -167 -138 -5 -5 89 -63 209 -130 119
-67 219 -119 221 -117 6 6 -90 516 -97 516 -3 0 -78 -59 -166 -131z"/>
<path d="M1192 1099 c46 -63 110 -149 142 -192 32 -43 56 -81 53 -83 -2 -3
-53 61 -111 141 -59 80 -110 145 -112 145 -3 0 18 -44 46 -97 38 -73 65 -110
105 -146 30 -27 62 -50 71 -51 9 -1 24 -13 34 -26 16 -21 16 -15 -1 111 -10
74 -20 153 -24 176 l-6 42 -127 42 c-70 23 -133 44 -141 47 -7 3 24 -46 71
-109z"/>
<path d="M2343 1134 c4 -44 10 -132 13 -197 4 -65 11 -120 15 -122 4 -3 91 63
194 146 130 106 183 154 174 159 -8 4 -93 24 -189 45 -96 20 -184 39 -194 42
-18 5 -19 1 -13 -73z"/>
<path d="M2102 1036 c-118 -91 -215 -166 -218 -168 -2 -2 100 -19 227 -37 126
-18 233 -31 236 -28 7 8 -18 397 -26 397 -3 0 -102 -74 -219 -164z"/>
<path d="M1428 932 c13 -97 24 -178 25 -179 3 -2 379 105 383 110 3 3 -371
215 -426 243 -3 1 5 -77 18 -174z"/>
<path d="M2566 946 c-97 -80 -177 -148 -178 -153 0 -9 181 -75 195 -70 10 3
170 358 164 363 -2 2 -83 -61 -181 -140z"/>
<path d="M1658 797 c-98 -28 -175 -53 -172 -56 7 -8 508 -189 512 -185 9 6
-138 294 -150 293 -7 -1 -93 -24 -190 -52z"/>
<path d="M1880 848 c0 -3 32 -71 70 -152 52 -107 74 -144 84 -139 40 24 296
217 296 223 0 4 -89 19 -197 34 -109 16 -210 30 -225 33 -16 3 -28 3 -28 1z"/>
<path d="M2212 673 c-78 -58 -141 -107 -139 -109 1 -1 112 29 245 68 159 47
238 74 229 80 -16 9 -183 68 -189 67 -2 0 -67 -48 -146 -106z"/>
<path d="M7958 1654 c-85 -46 -92 -230 -10 -294 17 -14 40 -20 78 -20 45 0 59
5 88 30 79 70 64 242 -24 287 -34 17 -99 16 -132 -3z"/>
<path d="M4879 1521 c-25 -25 -29 -37 -29 -81 0 -44 4 -56 29 -81 51 -50 118
-33 141 37 37 111 -65 201 -141 125z"/>
<path d="M5320 1553 c-19 -7 -60 -44 -60 -55 0 -4 38 -8 85 -8 47 0 85 3 85 6
0 19 -24 43 -51 53 -35 12 -37 12 -59 4z"/>
<path d="M6319 1521 c-24 -25 -29 -38 -29 -79 0 -122 133 -158 170 -46 37 111
-65 201 -141 125z"/>
<path d="M6747 1408 c-60 -16 -74 -71 -21 -84 38 -10 85 15 100 52 8 19 14 36
14 39 0 8 -51 4 -93 -7z"/>
<path d="M7531 1549 c-24 -9 -50 -36 -51 -51 0 -5 38 -8 85 -8 47 0 85 3 85 6
0 19 -24 43 -51 53 -37 13 -36 13 -68 0z"/>
</g>
</svg>
